<?xml version="1.0" standalone="no"?>
<!DOCTYPE svg PUBLIC "-//W3C//DTD SVG 20010904//EN"
 "http://www.w3.org/TR/2001/REC-SVG-20010904/DTD/svg10.dtd">
<svg version="1.0" xmlns="http://www.w3.org/2000/svg"
 width="700.000000pt" height="700.000000pt" viewBox="0 0 700.000000 700.000000"
 preserveAspectRatio="xMidYMid meet">
<metadata>
Created by potrace 1.14, written by Peter Selinger 2001-2017
</metadata>
<g transform="translate(0.000000,700.000000) scale(0.100000,-0.100000)"
fill="#000000" stroke="none">
<path d="M3465 6281 c-49 -29 -315 -182 -380 -218 -33 -19 -67 -38 -75 -43
-15 -10 -573 -329 -657 -375 -50 -29 -382 -219 -427 -245 -17 -10 -47 -27 -66
-38 -40 -22 -292 -166 -360 -206 -25 -14 -70 -40 -100 -56 -30 -17 -62 -35
-70 -40 -12 -8 -161 -93 -260 -149 -13 -7 -15 -176 -18 -1409 l-2 -1402 52
-29 c29 -16 58 -34 65 -40 7 -6 15 -11 18 -11 3 0 49 -25 101 -55 53 -30 97
-55 99 -55 1 0 29 -16 61 -35 32 -19 61 -35 64 -35 3 0 6 628 6 1396 l-1 1395
25 13 c14 7 138 77 275 156 138 78 270 154 295 168 25 14 72 40 105 60 33 19
76 44 95 55 19 10 295 168 613 349 l577 330 213 -121 c229 -131 239 -137 335
-193 35 -21 65 -38 67 -38 2 0 59 -32 127 -71 67 -39 143 -83 168 -97 25 -14
232 -132 460 -262 228 -130 435 -248 460 -262 25 -14 66 -38 93 -53 26 -15 51
-34 55 -43 10 -21 8 -2233 -1 -2249 -4 -7 -31 -25 -60 -41 -28 -16 -95 -53
-148 -84 -52 -30 -102 -58 -110 -61 -8 -4 -27 -15 -44 -26 -32 -19 -763 -438
-1050 -601 -93 -53 -259 -147 -367 -209 l-197 -112 -56 31 c-32 18 -148 84
-259 147 -110 63 -222 127 -247 142 -25 14 -146 82 -267 151 l-222 125 0 1127
0 1126 58 33 c31 19 66 38 78 44 11 5 149 84 307 175 158 91 295 170 304 175
10 6 70 39 133 74 63 36 126 73 139 83 26 20 24 20 163 -60 21 -12 235 -134
478 -272 l440 -251 0 -589 0 -588 -147 -84 c-82 -47 -157 -90 -168 -96 -11 -6
-47 -26 -80 -45 -115 -67 -151 -87 -240 -137 -49 -28 -97 -55 -105 -60 -8 -5
-81 -47 -161 -93 l-147 -84 -58 32 -59 33 -1 584 0 585 130 74 c71 41 157 89
190 108 34 18 72 41 86 50 14 9 39 23 55 31 17 8 52 28 78 44 l48 28 -88 50
c-48 27 -108 61 -133 75 -25 14 -91 52 -147 84 l-103 59 -202 -116 c-112 -64
-219 -125 -238 -136 -19 -11 -58 -33 -86 -49 -29 -16 -53 -37 -56 -47 -3 -14
-2 -1633 1 -1683 1 -9 13 -22 29 -30 15 -8 81 -45 147 -83 66 -38 145 -82 175
-99 30 -17 72 -41 92 -54 21 -13 40 -23 44 -23 3 0 18 -8 32 -19 59 -41 46
-46 479 202 224 128 428 245 453 259 25 14 151 86 280 160 129 74 256 146 281
160 25 14 55 31 66 38 20 13 20 23 20 866 0 469 -3 857 -6 862 -5 7 -210 126
-421 244 -25 14 -278 159 -562 322 -285 163 -522 296 -527 296 -5 0 -80 -40
-166 -90 -86 -49 -158 -90 -160 -90 -1 0 -65 -36 -141 -80 -76 -44 -150 -87
-164 -95 -14 -8 -219 -125 -456 -261 l-430 -246 0 -1395 1 -1395 80 -47 c44
-26 105 -61 135 -78 30 -17 316 -180 635 -363 319 -183 599 -343 623 -357 l42
-24 176 101 c96 56 194 112 217 125 98 54 223 126 237 135 8 6 20 13 27 16 7
3 412 234 900 513 l888 508 3 1406 c1 894 -1 1407 -8 1407 -5 0 -33 14 -62 31
-72 43 -113 67 -178 102 -30 17 -67 38 -82 49 -14 10 -28 18 -31 18 -2 0 -186
104 -408 231 -222 127 -424 243 -449 257 -25 14 -182 104 -350 200 -168 96
-325 186 -350 200 -25 13 -119 68 -210 120 -91 52 -190 109 -220 125 -30 17
-64 36 -75 44 -24 16 -23 16 -60 -6z"/>
</g>
</svg>
