<svg width="20" height="20" viewBox="0 0 20 20" fill="none" xmlns="http://www.w3.org/2000/svg">
<g id="direction_gps_location_map_maps_navigation_pin_icon_123198 1" clip-path="url(#clip0_13_11)">
<g id="Layer 2">
<path id="Vector" d="M10 18.125C9.91775 18.1255 9.83621 18.1097 9.76006 18.0786C9.68391 18.0475 9.61465 18.0017 9.55625 17.9438L5.1375 13.5688C4.49954 12.935 3.99323 12.1813 3.64774 11.3511C3.30224 10.5209 3.12437 9.6305 3.12437 8.73125C3.12437 7.83201 3.30224 6.94164 3.64774 6.11142C3.99323 5.28119 4.49954 4.52751 5.1375 3.89375C6.43252 2.61436 8.17959 1.89691 10 1.89691C11.8204 1.89691 13.5675 2.61436 14.8625 3.89375C15.5005 4.52751 16.0068 5.28119 16.3523 6.11142C16.6978 6.94164 16.8756 7.83201 16.8756 8.73125C16.8756 9.6305 16.6978 10.5209 16.3523 11.3511C16.0068 12.1813 15.5005 12.935 14.8625 13.5688L10.4438 17.9438C10.3854 18.0017 10.3161 18.0475 10.2399 18.0786C10.1638 18.1097 10.0823 18.1255 10 18.125ZM10 3.125C8.50829 3.12134 7.07621 3.71036 6.01875 4.7625C5.49795 5.28005 5.08464 5.89549 4.8026 6.57339C4.52056 7.25129 4.37536 7.97827 4.37536 8.7125C4.37536 9.44673 4.52056 10.1737 4.8026 10.8516C5.08464 11.5295 5.49795 12.1449 6.01875 12.6625L10 16.6188L13.9813 12.6625C14.5021 12.1449 14.9154 11.5295 15.1974 10.8516C15.4794 10.1737 15.6246 9.44673 15.6246 8.7125C15.6246 7.97827 15.4794 7.25129 15.1974 6.57339C14.9154 5.89549 14.5021 5.28005 13.9813 4.7625C12.9238 3.71036 11.4917 3.12134 10 3.125Z" fill="white" fill-opacity="0.5"/>
<path id="Vector_2" d="M10 11.875C9.38194 11.875 8.77775 11.6917 8.26384 11.3483C7.74994 11.005 7.3494 10.5169 7.11288 9.94589C6.87635 9.37487 6.81447 8.74654 6.93505 8.14034C7.05563 7.53415 7.35325 6.97733 7.79029 6.54029C8.22733 6.10325 8.78415 5.80563 9.39034 5.68505C9.99654 5.56447 10.6249 5.62635 11.1959 5.86288C11.7669 6.0994 12.255 6.49994 12.5983 7.01384C12.9417 7.52775 13.125 8.13194 13.125 8.75C13.125 9.5788 12.7958 10.3737 12.2097 10.9597C11.6237 11.5458 10.8288 11.875 10 11.875ZM10 6.875C9.62916 6.875 9.26665 6.98497 8.95831 7.191C8.64997 7.39702 8.40964 7.68986 8.26773 8.03247C8.12581 8.37508 8.08868 8.75208 8.16103 9.1158C8.23338 9.47951 8.41195 9.8136 8.67418 10.0758C8.9364 10.3381 9.27049 10.5166 9.63421 10.589C9.99792 10.6613 10.3749 10.6242 10.7175 10.4823C11.0601 10.3404 11.353 10.1 11.559 9.7917C11.765 9.48335 11.875 9.12084 11.875 8.75C11.875 8.25272 11.6775 7.77581 11.3258 7.42418C10.9742 7.07255 10.4973 6.875 10 6.875Z" fill="white" fill-opacity="0.5"/>
</g>
</g>
<defs>
<clipPath id="clip0_13_11">
<rect width="20" height="20" fill="white"/>
</clipPath>
</defs>
</svg>
