<svg width="142" height="211" viewBox="0 0 142 211" fill="none" xmlns="http://www.w3.org/2000/svg">
<path opacity="0.5" d="M13.4487 119.642V44.7506L70.5959 14.3981L127.757 44.7506V105.244L70.5959 135.602L40.3439 119.531V59.2575L70.5959 43.1888L100.86 59.2575V90.735L70.5959 106.806L67.2413 105.024V73.7681L84.1494 64.7831L70.5959 57.5869L53.7926 66.5175V112.275L70.5959 121.204L114.309 97.9856V52.0069L70.5959 28.7962L26.8973 52.0069V126.782L70.5959 150L141.204 112.5V37.5L70.5959 0L0 37.5V112.5L13.4487 119.642Z" fill="white"/>
<g opacity="0.3">
<path d="M1 209.501V191.607V187.122V170.434H10.2097C13.3921 170.434 15.8673 170.868 17.6353 171.736C19.4355 172.604 20.7052 173.939 21.4445 175.739C22.216 177.54 22.6018 179.823 22.6018 182.588V196.865C22.6018 199.694 22.216 202.058 21.4445 203.955C20.7052 205.82 19.4515 207.218 17.6835 208.151C15.9477 209.051 13.5528 209.501 10.499 209.501H1ZM8.13631 204.533H10.3061C11.9455 204.533 13.1189 204.244 13.8261 203.665C14.5333 203.086 14.9672 202.25 15.128 201.157C15.2887 200.032 15.369 198.665 15.369 197.058V191.607V187.122V182.106C15.369 180.53 15.2565 179.26 15.0315 178.296C14.8065 177.331 14.3404 176.624 13.6332 176.174C12.926 175.723 11.7848 175.498 10.2097 175.498H8.13631V204.533Z" fill="white"/>
<path d="M30.9744 209.501V187.122V170.434H40.3288C42.9647 170.434 45.1828 170.756 46.9829 171.399C48.8152 172.01 50.1975 173.071 51.1297 174.582C52.094 176.093 52.5762 178.151 52.5762 180.756C52.5762 182.331 52.4316 183.746 52.1423 185C51.853 186.254 51.3547 187.331 50.6475 188.231C49.9724 189.099 49.0242 189.775 47.8026 190.257L53.2513 209.501H46.115C46.115 209.501 43.235 198.595 41.3896 191.607C40.1091 191.607 38.1107 191.607 38.1107 191.607V209.501H30.9744ZM38.1107 187.122V191.607C38.1107 191.607 40.1091 191.607 41.3896 191.607C41.3896 189.934 41.3896 187.122 41.3896 187.122C42.7808 186.918 42.804 186.929 43.6076 186.543C44.4434 186.125 45.0381 185.482 45.3917 184.614C45.7453 183.714 45.9221 182.572 45.9221 181.19C45.9221 179.228 45.5524 177.765 44.8131 176.801C44.1059 175.804 42.7397 175.305 40.7145 175.305H38.1107V187.122Z" fill="white"/>
<path d="M71.4605 210.032C68.5995 210.032 66.3493 209.469 64.7099 208.344C63.1026 207.218 61.9775 205.691 61.3346 203.762C60.6917 201.8 60.3703 199.55 60.3703 197.009V183.071C60.3703 180.402 60.6917 178.087 61.3346 176.125C61.9775 174.164 63.1026 172.653 64.7099 171.592C66.3493 170.531 68.5995 170 71.4605 170C74.1607 170 76.2662 170.466 77.7771 171.399C79.32 172.299 80.413 173.601 81.0559 175.305C81.6988 177.01 82.0203 178.987 82.0203 181.238V184.518H75.1733V181.141C75.1733 180.048 75.109 179.051 74.9804 178.151C74.884 177.251 74.5786 176.543 74.0643 176.029C73.5821 175.482 72.7302 175.209 71.5087 175.209C70.2872 175.209 69.3871 175.498 68.8085 176.077C68.262 176.624 67.9084 177.379 67.7477 178.344C67.5869 179.276 67.5066 180.338 67.5066 181.527V198.505C67.5066 199.919 67.6191 201.093 67.8441 202.025C68.0691 202.926 68.4709 203.617 69.0496 204.099C69.6603 204.549 70.48 204.775 71.5087 204.775C72.6981 204.775 73.5338 204.501 74.016 203.955C74.5304 203.376 74.8518 202.62 74.9804 201.688C75.109 200.755 75.1733 199.71 75.1733 198.553V195.032H82.0203V198.167C82.0203 200.482 81.7149 202.54 81.1041 204.34C80.4934 206.109 79.4165 207.508 77.8735 208.537C76.3627 209.533 74.225 210.032 71.4605 210.032Z" fill="white"/>
<path d="M88.1459 209.501L95.9572 170.434H103.576L111.387 209.501H104.781L103.238 200.482H96.4394L94.8482 209.501H88.1459ZM97.1627 195.948L96.4394 200.482H103.238L102.467 195.948L99.8147 179.55L97.1627 195.948Z" fill="white"/>
<path d="M118.723 209.501V187.122V170.434H128.077C130.713 170.434 132.931 170.756 134.732 171.399C136.564 172.01 137.946 173.071 138.878 174.582C139.843 176.093 140.325 178.151 140.325 180.756C140.325 182.331 140.18 183.746 139.891 185C139.602 186.254 139.103 187.331 138.396 188.231C137.721 189.099 136.773 189.775 135.551 190.257L141 209.501H133.864C133.864 209.501 130.984 198.595 129.138 191.607C127.858 191.607 125.859 191.607 125.859 191.607V209.501H118.723ZM125.859 187.122V191.607C125.859 191.607 127.858 191.607 129.138 191.607C129.138 189.934 129.138 187.122 129.138 187.122C130.53 186.918 130.553 186.929 131.356 186.543C132.192 186.125 132.787 185.482 133.14 184.614C133.494 183.714 133.671 182.572 133.671 181.19C133.671 179.228 133.301 177.765 132.562 176.801C131.855 175.804 130.488 175.305 128.463 175.305H125.859V187.122Z" fill="white"/>
</g>
</svg>
