<svg width="69" height="30" viewBox="0 0 69 30" fill="none" xmlns="http://www.w3.org/2000/svg">
<path d="M6.5044 21.6265V10.5099L14.9872 6.00441L23.4721 10.5099V19.4893L14.9872 23.9956L10.4967 21.6101V12.6632L14.9872 10.278L19.4795 12.6632V17.3357L14.9872 19.7211L14.4892 19.4567V14.8171L16.999 13.4834L14.9872 12.4152L12.493 13.7409V20.533L14.9872 21.8584L21.4758 18.4119V11.587L14.9872 8.14163L8.50069 11.587V22.6864L14.9872 26.1328L25.4681 20.5664V9.43359L14.9872 3.86719L4.50812 9.43359V20.5664L6.5044 21.6265Z" fill="white"/>
<g opacity="0.3">
<path d="M32.3181 19.1523V15.3284V14.3699V10.8037H34.2862C34.9663 10.8037 35.4952 10.8965 35.873 11.082C36.2577 11.2675 36.5291 11.5527 36.6871 11.9375C36.8519 12.3222 36.9344 12.8101 36.9344 13.401V16.4519C36.9344 17.0565 36.8519 17.5616 36.6871 17.967C36.5291 18.3655 36.2612 18.6644 35.8833 18.8637C35.5124 19.0561 35.0006 19.1523 34.348 19.1523H32.3181ZM33.8431 18.0906H34.3068C34.6572 18.0906 34.9079 18.0288 35.059 17.9051C35.2101 17.7814 35.3029 17.6028 35.3372 17.3692C35.3716 17.1287 35.3887 16.8366 35.3887 16.4931V15.3284V14.3699V13.298C35.3887 12.9613 35.3647 12.6899 35.3166 12.4837C35.2685 12.2776 35.1689 12.1264 35.0178 12.0302C34.8667 11.934 34.6228 11.8859 34.2862 11.8859H33.8431V18.0906Z" fill="white"/>
<path d="M38.7236 19.1523V14.3699V10.8037H40.7226C41.2859 10.8037 41.7599 10.8724 42.1446 11.0098C42.5361 11.1404 42.8315 11.3671 43.0307 11.6901C43.2368 12.013 43.3398 12.4528 43.3398 13.0094C43.3398 13.3461 43.3089 13.6484 43.2471 13.9164C43.1853 14.1843 43.0788 14.4145 42.9277 14.6069C42.7834 14.7925 42.5808 14.9367 42.3197 15.0398L43.4841 19.1523H41.9591C41.9591 19.1523 41.3436 16.8217 40.9493 15.3284C40.6756 15.3284 40.2486 15.3284 40.2486 15.3284V19.1523H38.7236ZM40.2486 14.3699V15.3284C40.2486 15.3284 40.6756 15.3284 40.9493 15.3284C40.9493 14.9707 40.9493 14.3699 40.9493 14.3699C41.2466 14.3262 41.2515 14.3286 41.4233 14.2462C41.6019 14.1569 41.729 14.0194 41.8045 13.8339C41.8801 13.6415 41.9179 13.3976 41.9179 13.1021C41.9179 12.683 41.8389 12.3703 41.6809 12.1642C41.5297 11.9512 41.2378 11.8447 40.805 11.8447H40.2486V14.3699Z" fill="white"/>
<path d="M47.3754 19.2656C46.764 19.2656 46.2831 19.1454 45.9328 18.9049C45.5893 18.6644 45.3489 18.338 45.2115 17.9257C45.0741 17.5066 45.0054 17.0256 45.0054 16.4828V13.5041C45.0054 12.9338 45.0741 12.4391 45.2115 12.0199C45.3489 11.6008 45.5893 11.2778 45.9328 11.0511C46.2831 10.8243 46.764 10.7109 47.3754 10.7109C47.9524 10.7109 48.4023 10.8106 48.7252 11.0098C49.0549 11.2022 49.2885 11.4805 49.4259 11.8447C49.5633 12.2089 49.632 12.6314 49.632 13.1124V13.8133H48.1688V13.0918C48.1688 12.8582 48.155 12.6452 48.1276 12.4528C48.107 12.2604 48.0417 12.1092 47.9318 11.9993C47.8287 11.8825 47.6467 11.8241 47.3857 11.8241C47.1246 11.8241 46.9323 11.8859 46.8086 12.0096C46.6918 12.1264 46.6163 12.2879 46.5819 12.494C46.5476 12.6933 46.5304 12.92 46.5304 13.1743V16.8023C46.5304 17.1046 46.5545 17.3554 46.6025 17.5547C46.6506 17.7471 46.7365 17.8948 46.8602 17.9979C46.9907 18.0941 47.1658 18.1422 47.3857 18.1422C47.6398 18.1422 47.8184 18.0838 47.9215 17.967C48.0314 17.8433 48.1001 17.6818 48.1276 17.4825C48.155 17.2833 48.1688 17.06 48.1688 16.8126V16.0602H49.632V16.7301C49.632 17.2249 49.5667 17.6646 49.4362 18.0494C49.3057 18.4273 49.0755 18.7262 48.7458 18.9461C48.4229 19.1591 47.9661 19.2656 47.3754 19.2656Z" fill="white"/>
<path d="M50.941 19.1523L52.6103 10.8037H54.2383L55.9076 19.1523H54.4959L54.1662 17.2249H52.7133L52.3733 19.1523H50.941ZM52.8679 16.256L52.7133 17.2249H54.1662L54.0013 16.256L53.4346 12.7517L52.8679 16.256Z" fill="white"/>
<path d="M57.4753 19.1523V14.3699V10.8037H59.4743C60.0376 10.8037 60.5116 10.8724 60.8963 11.0098C61.2878 11.1404 61.5832 11.3671 61.7824 11.6901C61.9885 12.013 62.0915 12.4528 62.0915 13.0094C62.0915 13.3461 62.0606 13.6484 61.9988 13.9164C61.937 14.1843 61.8305 14.4145 61.6794 14.6069C61.5351 14.7925 61.3325 14.9367 61.0714 15.0398L62.2358 19.1523H60.7108C60.7108 19.1523 60.0953 16.8217 59.701 15.3284C59.4273 15.3284 59.0003 15.3284 59.0003 15.3284V19.1523H57.4753ZM59.0003 14.3699V15.3284C59.0003 15.3284 59.4273 15.3284 59.701 15.3284C59.701 14.9707 59.701 14.3699 59.701 14.3699C59.9983 14.3262 60.0032 14.3286 60.175 14.2462C60.3536 14.1569 60.4807 14.0194 60.5562 13.8339C60.6318 13.6415 60.6696 13.3976 60.6696 13.1021C60.6696 12.683 60.5906 12.3703 60.4326 12.1642C60.2814 11.9512 59.9895 11.8447 59.5567 11.8447H59.0003V14.3699Z" fill="white"/>
</g>
</svg>
