<svg width="48" height="48" viewBox="0 0 48 48" fill="none" xmlns="http://www.w3.org/2000/svg">
<g opacity="0.7">
<path d="M5.82999 23.616C18.398 18.087 34.662 11.346 36.907 10.413C42.796 7.971 44.603 8.439 43.702 13.847C43.055 17.734 41.188 30.603 39.7 38.613C38.817 43.363 36.836 43.926 33.721 41.871C32.223 40.882 24.662 35.882 23.021 34.708C21.523 33.638 19.457 32.351 22.048 29.816C22.97 28.913 29.014 23.142 33.723 18.65C34.34 18.06 33.565 17.091 32.853 17.564C26.506 21.773 17.706 27.615 16.586 28.376C14.894 29.525 13.269 30.052 10.352 29.214C8.14799 28.581 5.99499 27.826 5.15699 27.538C1.92999 26.43 2.69599 24.995 5.82999 23.616Z" fill="white"/>
</g>
</svg>
