<?xml version="1.0" standalone="no"?>
<!DOCTYPE svg PUBLIC "-//W3C//DTD SVG 20010904//EN"
 "http://www.w3.org/TR/2001/REC-SVG-20010904/DTD/svg10.dtd">
<svg version="1.0" xmlns="http://www.w3.org/2000/svg"
 width="700.000000pt" height="700.000000pt" viewBox="0 0 700.000000 700.000000"
 preserveAspectRatio="xMidYMid meet">
<metadata>
Created by potrace 1.14, written by Peter Selinger 2001-2017
</metadata>
<g transform="translate(0.000000,700.000000) scale(0.100000,-0.100000)"
fill="#000000" stroke="none">
<path d="M3435 6157 c-33 -18 -114 -62 -180 -96 -66 -35 -172 -92 -235 -126
-121 -65 -360 -192 -445 -235 -27 -14 -52 -27 -55 -30 -3 -3 -27 -16 -55 -31
-116 -59 -351 -183 -360 -189 -5 -4 -64 -36 -130 -70 -66 -34 -142 -75 -170
-90 -27 -15 -95 -51 -150 -80 -55 -29 -140 -74 -190 -101 -108 -57 -265 -140
-397 -211 l-98 -51 0 -1347 0 -1346 142 -76 c79 -42 187 -99 241 -127 l97 -52
0 38 c0 21 1 625 1 1343 l0 1306 292 154 c160 85 345 184 412 218 66 35 168
90 227 122 59 32 126 68 150 80 24 12 66 34 93 48 28 15 106 57 175 94 245
129 286 151 345 183 33 18 119 63 190 100 72 37 134 72 140 76 12 12 48 11 60
0 6 -4 53 -31 105 -58 245 -129 303 -160 420 -223 69 -37 184 -98 255 -135 72
-37 182 -96 245 -130 63 -34 156 -83 205 -109 100 -52 185 -97 415 -220 85
-46 200 -107 255 -136 55 -29 104 -56 110 -62 14 -13 14 -2167 0 -2177 -5 -5
-57 -33 -115 -63 -58 -31 -240 -128 -405 -215 -165 -88 -345 -184 -400 -213
-55 -29 -127 -67 -160 -85 -33 -18 -109 -58 -170 -90 -60 -32 -132 -70 -160
-85 -59 -32 -206 -110 -360 -192 -60 -32 -147 -78 -193 -101 l-83 -42 -32 18
c-17 10 -92 50 -167 89 -74 39 -139 74 -145 78 -5 4 -66 37 -135 72 -69 36
-145 77 -170 90 -25 14 -103 56 -175 93 -245 128 -255 134 -256 163 -3 109 -1
2133 2 2135 14 11 93 54 214 117 77 40 145 76 150 80 6 4 78 42 160 85 83 43
155 81 160 85 6 4 73 40 150 80 77 40 164 86 194 102 l55 30 80 -43 c45 -23
104 -54 131 -69 28 -15 100 -53 160 -85 61 -32 137 -72 170 -90 33 -17 101
-54 150 -80 50 -26 122 -65 160 -85 39 -21 107 -57 153 -81 l82 -44 0 -565 0
-565 -122 -65 c-67 -36 -181 -96 -253 -133 -71 -38 -148 -79 -170 -91 -22 -13
-103 -56 -180 -96 -77 -40 -144 -76 -150 -80 -5 -4 -56 -31 -112 -59 l-103
-52 -52 28 c-29 15 -56 32 -59 36 -3 5 -6 259 -5 565 l1 557 90 48 c50 26 146
77 215 114 182 96 295 156 298 158 4 3 -473 255 -484 255 -5 0 -25 -8 -44 -18
-19 -11 -80 -43 -135 -72 -126 -67 -194 -103 -322 -171 l-103 -54 0 -822 0
-821 118 -63 c64 -34 162 -86 217 -115 55 -29 138 -73 185 -98 l84 -45 71 38
c68 37 157 84 390 206 61 32 124 65 140 75 17 10 80 43 140 75 61 32 142 75
180 95 39 21 104 55 145 77 41 22 109 58 150 80 41 22 109 58 150 80 41 22
103 55 138 74 44 23 62 39 63 53 0 12 1 383 2 826 l1 805 -100 53 c-54 29
-153 82 -219 116 -66 35 -140 75 -165 88 -25 14 -94 51 -155 83 -167 88 -287
151 -425 225 -69 37 -177 94 -240 128 -63 33 -149 78 -190 101 l-75 40 -125
-66 c-69 -36 -152 -80 -185 -98 -33 -18 -105 -56 -160 -85 -55 -29 -161 -85
-235 -125 -74 -40 -180 -96 -235 -125 -55 -29 -127 -67 -160 -85 -71 -38 -189
-100 -340 -180 -60 -32 -115 -63 -120 -70 -7 -8 -10 -452 -10 -1345 l0 -1332
25 -17 c14 -10 79 -46 145 -81 66 -34 192 -101 280 -148 88 -46 198 -105 245
-130 47 -24 112 -59 145 -77 33 -18 114 -61 180 -95 66 -34 134 -70 150 -80
17 -9 75 -41 130 -70 55 -29 138 -73 184 -98 l84 -45 81 43 c44 23 113 59 151
80 116 62 215 115 305 162 177 93 289 153 400 213 63 34 156 83 205 109 50 26
97 51 105 56 8 5 123 66 255 136 250 131 368 194 470 249 33 18 107 57 165 88
58 30 141 74 185 97 44 24 110 59 147 78 l66 36 0 1346 1 1347 -32 16 c-30 15
-95 50 -332 176 -55 30 -136 73 -180 96 -224 119 -417 221 -480 255 -38 21
-115 61 -170 90 -55 29 -122 65 -150 80 -27 15 -99 53 -160 85 -60 32 -143 75
-182 96 -169 90 -232 124 -298 159 -38 20 -110 59 -160 85 -151 80 -257 136
-322 171 -34 19 -66 34 -70 34 -4 0 -35 -15 -68 -33z"/>
</g>
</svg>
